<mxfile host="Electron" agent="Mozilla/5.0 (Windows NT 10.0; Win64; x64) AppleWebKit/537.36 (KHTML, like Gecko) draw.io/28.1.2 Chrome/138.0.7204.243 Electron/37.4.0 Safari/537.36" version="28.1.2">
  <diagram name="Seite-1" id="B3mxvTwksXzI3-duo697">
    <mxGraphModel dx="1031" dy="560" grid="1" gridSize="10" guides="1" tooltips="1" connect="1" arrows="1" fold="1" page="1" pageScale="1" pageWidth="827" pageHeight="1169" math="0" shadow="0">
      <root>
        <mxCell id="0" />
        <mxCell id="1" parent="0" />
        <mxCell id="F-mNHtvUeDV6_lfB6tj3-1" value="START" style="ellipse;whiteSpace=wrap;html=1;aspect=fixed;" parent="1" vertex="1">
          <mxGeometry x="360" y="20" width="80" height="80" as="geometry" />
        </mxCell>
        <mxCell id="F-mNHtvUeDV6_lfB6tj3-2" value="STOP" style="ellipse;whiteSpace=wrap;html=1;aspect=fixed;" parent="1" vertex="1">
          <mxGeometry x="360" y="400" width="80" height="80" as="geometry" />
        </mxCell>
        <mxCell id="F-mNHtvUeDV6_lfB6tj3-11" value="" style="endArrow=classic;html=1;rounded=0;entryX=0.5;entryY=0;entryDx=0;entryDy=0;" parent="1" edge="1">
          <mxGeometry width="50" height="50" relative="1" as="geometry">
            <mxPoint x="399.86" y="100" as="sourcePoint" />
            <mxPoint x="400" y="160" as="targetPoint" />
          </mxGeometry>
        </mxCell>
        <mxCell id="F-mNHtvUeDV6_lfB6tj3-12" value="" style="endArrow=classic;html=1;rounded=0;entryX=0.5;entryY=0;entryDx=0;entryDy=0;exitX=0.5;exitY=1;exitDx=0;exitDy=0;" parent="1" edge="1" source="jn43xkAZqmTzuvHZdxx--1">
          <mxGeometry width="50" height="50" relative="1" as="geometry">
            <mxPoint x="400" y="220" as="sourcePoint" />
            <mxPoint x="400.14" y="280" as="targetPoint" />
          </mxGeometry>
        </mxCell>
        <mxCell id="F-mNHtvUeDV6_lfB6tj3-13" value="" style="endArrow=classic;html=1;rounded=0;entryX=0.5;entryY=0;entryDx=0;entryDy=0;" parent="1" edge="1">
          <mxGeometry width="50" height="50" relative="1" as="geometry">
            <mxPoint x="400" y="340" as="sourcePoint" />
            <mxPoint x="400.14" y="400" as="targetPoint" />
          </mxGeometry>
        </mxCell>
        <mxCell id="jn43xkAZqmTzuvHZdxx--1" value="define variablen:&lt;div&gt;name: &quot;Chris&quot;&lt;/div&gt;&lt;div&gt;country: &quot;Germany&quot;&lt;/div&gt;&lt;div&gt;age: &quot;41&quot;&lt;/div&gt;&lt;div&gt;result: NULL&lt;/div&gt;" style="shape=process;whiteSpace=wrap;html=1;backgroundOutline=1;" vertex="1" parent="1">
          <mxGeometry x="300" y="160" width="200" height="90" as="geometry" />
        </mxCell>
        <mxCell id="jn43xkAZqmTzuvHZdxx--2" value="Text Generator Process" style="shape=process;whiteSpace=wrap;html=1;backgroundOutline=1;" vertex="1" parent="1">
          <mxGeometry x="340" y="280" width="120" height="60" as="geometry" />
        </mxCell>
        <mxCell id="jn43xkAZqmTzuvHZdxx--3" value="Process: means your&#39; app shall do something on it&#39;s own" style="shape=document;whiteSpace=wrap;html=1;boundedLbl=1;" vertex="1" parent="1">
          <mxGeometry x="90" y="170" width="120" height="80" as="geometry" />
        </mxCell>
        <mxCell id="jn43xkAZqmTzuvHZdxx--16" style="edgeStyle=orthogonalEdgeStyle;rounded=0;orthogonalLoop=1;jettySize=auto;html=1;exitX=0.5;exitY=1;exitDx=0;exitDy=0;entryX=0.5;entryY=0;entryDx=0;entryDy=0;" edge="1" parent="1" source="jn43xkAZqmTzuvHZdxx--4" target="jn43xkAZqmTzuvHZdxx--7">
          <mxGeometry relative="1" as="geometry" />
        </mxCell>
        <mxCell id="jn43xkAZqmTzuvHZdxx--4" value="START" style="ellipse;whiteSpace=wrap;html=1;aspect=fixed;" vertex="1" parent="1">
          <mxGeometry x="360" y="600" width="80" height="80" as="geometry" />
        </mxCell>
        <mxCell id="jn43xkAZqmTzuvHZdxx--5" value="STOP" style="ellipse;whiteSpace=wrap;html=1;aspect=fixed;" vertex="1" parent="1">
          <mxGeometry x="360" y="1089" width="80" height="80" as="geometry" />
        </mxCell>
        <mxCell id="jn43xkAZqmTzuvHZdxx--17" style="edgeStyle=orthogonalEdgeStyle;rounded=0;orthogonalLoop=1;jettySize=auto;html=1;exitX=0.5;exitY=1;exitDx=0;exitDy=0;" edge="1" parent="1" source="jn43xkAZqmTzuvHZdxx--7" target="jn43xkAZqmTzuvHZdxx--12">
          <mxGeometry relative="1" as="geometry" />
        </mxCell>
        <mxCell id="jn43xkAZqmTzuvHZdxx--7" value="Input: name, country, age" style="shape=parallelogram;perimeter=parallelogramPerimeter;whiteSpace=wrap;html=1;fixedSize=1;" vertex="1" parent="1">
          <mxGeometry x="340" y="710" width="120" height="60" as="geometry" />
        </mxCell>
        <mxCell id="jn43xkAZqmTzuvHZdxx--10" value="" style="shape=flexArrow;endArrow=classic;html=1;rounded=0;" edge="1" parent="1">
          <mxGeometry width="50" height="50" relative="1" as="geometry">
            <mxPoint x="210" y="204.5" as="sourcePoint" />
            <mxPoint x="300" y="204.5" as="targetPoint" />
          </mxGeometry>
        </mxCell>
        <mxCell id="jn43xkAZqmTzuvHZdxx--11" value="Pseudo Code&lt;div&gt;&lt;br&gt;&lt;/div&gt;&lt;div&gt;START&lt;/div&gt;&lt;div&gt;&lt;span style=&quot;background-color: transparent; color: light-dark(rgb(0, 0, 0), rgb(255, 255, 255));&quot;&gt;SET name: Chris&lt;/span&gt;&lt;/div&gt;&lt;div style=&quot;&quot;&gt;&lt;span style=&quot;background-color: transparent; color: light-dark(rgb(0, 0, 0), rgb(255, 255, 255));&quot;&gt;SET county: Germany&lt;/span&gt;&lt;/div&gt;&lt;div style=&quot;&quot;&gt;&lt;span style=&quot;background-color: transparent; color: light-dark(rgb(0, 0, 0), rgb(255, 255, 255));&quot;&gt;SET age: 41&lt;/span&gt;&lt;/div&gt;&lt;div style=&quot;&quot;&gt;&lt;span style=&quot;background-color: transparent; color: light-dark(rgb(0, 0, 0), rgb(255, 255, 255));&quot;&gt;SET result NULL&lt;/span&gt;&lt;/div&gt;&lt;div style=&quot;&quot;&gt;&lt;span style=&quot;background-color: transparent; color: light-dark(rgb(0, 0, 0), rgb(255, 255, 255));&quot;&gt;&lt;br&gt;&lt;/span&gt;&lt;/div&gt;&lt;div style=&quot;&quot;&gt;&lt;span style=&quot;background-color: transparent; color: light-dark(rgb(0, 0, 0), rgb(255, 255, 255));&quot;&gt;result= Hello my name is + name + and I am + age +&lt;/span&gt;&lt;/div&gt;&lt;div style=&quot;&quot;&gt;years old and I come from + country&lt;/div&gt;&lt;div style=&quot;&quot;&gt;PRINT result&lt;/div&gt;&lt;div style=&quot;&quot;&gt;END&lt;/div&gt;" style="text;html=1;align=left;verticalAlign=middle;resizable=0;points=[];autosize=1;strokeColor=none;fillColor=none;" vertex="1" parent="1">
          <mxGeometry x="530" y="110" width="300" height="190" as="geometry" />
        </mxCell>
        <mxCell id="jn43xkAZqmTzuvHZdxx--18" style="edgeStyle=orthogonalEdgeStyle;rounded=0;orthogonalLoop=1;jettySize=auto;html=1;exitX=1;exitY=0.5;exitDx=0;exitDy=0;entryX=0;entryY=0.5;entryDx=0;entryDy=0;" edge="1" parent="1" source="jn43xkAZqmTzuvHZdxx--12" target="jn43xkAZqmTzuvHZdxx--13">
          <mxGeometry relative="1" as="geometry" />
        </mxCell>
        <mxCell id="jn43xkAZqmTzuvHZdxx--20" style="edgeStyle=orthogonalEdgeStyle;rounded=0;orthogonalLoop=1;jettySize=auto;html=1;exitX=0.5;exitY=1;exitDx=0;exitDy=0;entryX=0.5;entryY=0;entryDx=0;entryDy=0;" edge="1" parent="1" source="jn43xkAZqmTzuvHZdxx--12" target="jn43xkAZqmTzuvHZdxx--14">
          <mxGeometry relative="1" as="geometry" />
        </mxCell>
        <mxCell id="jn43xkAZqmTzuvHZdxx--12" value="all input exist" style="rhombus;whiteSpace=wrap;html=1;" vertex="1" parent="1">
          <mxGeometry x="360" y="800" width="80" height="80" as="geometry" />
        </mxCell>
        <mxCell id="jn43xkAZqmTzuvHZdxx--19" style="edgeStyle=orthogonalEdgeStyle;rounded=0;orthogonalLoop=1;jettySize=auto;html=1;exitX=0.5;exitY=1;exitDx=0;exitDy=0;entryX=1;entryY=0.5;entryDx=0;entryDy=0;" edge="1" parent="1" source="jn43xkAZqmTzuvHZdxx--13" target="jn43xkAZqmTzuvHZdxx--5">
          <mxGeometry relative="1" as="geometry" />
        </mxCell>
        <mxCell id="jn43xkAZqmTzuvHZdxx--13" value="Print: Error" style="rounded=0;whiteSpace=wrap;html=1;" vertex="1" parent="1">
          <mxGeometry x="530" y="810" width="120" height="60" as="geometry" />
        </mxCell>
        <mxCell id="jn43xkAZqmTzuvHZdxx--21" style="edgeStyle=orthogonalEdgeStyle;rounded=0;orthogonalLoop=1;jettySize=auto;html=1;exitX=0.5;exitY=1;exitDx=0;exitDy=0;entryX=0.5;entryY=0;entryDx=0;entryDy=0;" edge="1" parent="1" source="jn43xkAZqmTzuvHZdxx--14" target="jn43xkAZqmTzuvHZdxx--15">
          <mxGeometry relative="1" as="geometry" />
        </mxCell>
        <mxCell id="jn43xkAZqmTzuvHZdxx--14" value="result = Hello my name is + name + and I am + age years old and I come from + country" style="rounded=0;whiteSpace=wrap;html=1;" vertex="1" parent="1">
          <mxGeometry x="310" y="919" width="180" height="60" as="geometry" />
        </mxCell>
        <mxCell id="jn43xkAZqmTzuvHZdxx--22" style="edgeStyle=orthogonalEdgeStyle;rounded=0;orthogonalLoop=1;jettySize=auto;html=1;exitX=0.5;exitY=1;exitDx=0;exitDy=0;entryX=0.5;entryY=0;entryDx=0;entryDy=0;" edge="1" parent="1" source="jn43xkAZqmTzuvHZdxx--15" target="jn43xkAZqmTzuvHZdxx--5">
          <mxGeometry relative="1" as="geometry" />
        </mxCell>
        <mxCell id="jn43xkAZqmTzuvHZdxx--15" value="Print: Result" style="rounded=0;whiteSpace=wrap;html=1;" vertex="1" parent="1">
          <mxGeometry x="340" y="1009" width="120" height="60" as="geometry" />
        </mxCell>
      </root>
    </mxGraphModel>
  </diagram>
</mxfile>
